<svg xmlns="http://www.w3.org/2000/svg" width="30" height="32" viewBox="0 0 30 32">
    <path fill="#8580A6" fill-rule="evenodd" d="M13.511 14.277a1.123 1.123 0 0 0-1.586-1.586L5.99 18.626a5.233 5.233 0 0 0-1.56 3.747c0 1.422.548 2.735 1.56 3.747 2.078 2.078 5.442 2.078 7.494 0l13.401-13.402a7.345 7.345 0 0 0 2.161-5.224c0-1.97-.766-3.829-2.16-5.224a7.395 7.395 0 0 0-10.476 0L3.036 15.644a9.433 9.433 0 0 0-2.79 6.729c0 2.543.985 4.95 2.79 6.728a9.433 9.433 0 0 0 6.728 2.79c2.544 0 4.95-.985 6.728-2.79l5.935-5.935a1.123 1.123 0 0 0-1.586-1.587l-5.935 5.936a7.243 7.243 0 0 1-5.142 2.133 7.243 7.243 0 0 1-5.142-2.133 7.243 7.243 0 0 1-2.133-5.142c0-1.942.766-3.775 2.133-5.142L17.997 3.856a5.088 5.088 0 0 1 3.637-1.504c1.368 0 2.68.547 3.638 1.504a5.088 5.088 0 0 1 1.504 3.638c0 1.368-.547 2.68-1.504 3.638L11.87 24.533c-1.176 1.176-3.118 1.176-4.321 0a3.042 3.042 0 0 1-.903-2.16c0-.82.328-1.587.903-2.161l5.962-5.935z"/>
</svg>
