<svg xmlns="http://www.w3.org/2000/svg" width="32" height="32" viewBox="0 0 32 32">
    <g fill="#8580A6" fill-rule="evenodd">
        <path fill-rule="nonzero" d="M15.977 31.955c8.817 0 15.978-7.161 15.978-15.978C31.955 7.161 24.794 0 15.977 0 7.161 0 0 7.16 0 15.977s7.16 15.978 15.977 15.978zm0-29.645c7.527 0 13.668 6.14 13.668 13.667s-6.141 13.668-13.668 13.668c-7.526 0-13.667-6.141-13.667-13.668C2.31 8.451 8.45 2.31 15.977 2.31z"/>
        <path d="M11.165 13.36c.481 0 .943-.193 1.29-.54a1.824 1.824 0 0 0 0-2.58 1.822 1.822 0 0 0-1.29-.538c-.481 0-.943.192-1.29.539a1.824 1.824 0 0 0 0 2.58c.347.346.809.538 1.29.538zM20.328 13.36c.481 0 .943-.193 1.29-.54a1.824 1.824 0 0 0 0-2.58 1.822 1.822 0 0 0-1.29-.538c-.481 0-.943.192-1.29.539a1.824 1.824 0 0 0 0 2.58c.347.346.79.538 1.29.538zM15.689 23.966c5.948 0 7.68-4.004 7.757-4.158a1.168 1.168 0 0 0-.616-1.52c-.596-.25-1.27.019-1.501.615-.058.116-1.27 2.753-5.621 2.753-4.216 0-5.058-2.45-5.097-2.565l-.265-.33a1.068 1.068 0 0 0-1.031-.174c-.274.089-.596.276-.768.673-.041.096-.063.279-.066.548.058.173 1.125 4.158 7.208 4.158z"/>
    </g>
</svg>
