<svg xmlns="http://www.w3.org/2000/svg" xmlns:xlink="http://www.w3.org/1999/xlink" width="40" height="36" viewBox="0 0 40 36">
    <defs>
        <filter id="a" width="142.9%" height="143.8%" x="-21.4%" y="-21.9%" filterUnits="objectBoundingBox">
            <feOffset dy="1" in="SourceAlpha" result="shadowOffsetOuter1"/>
            <feGaussianBlur in="shadowOffsetOuter1" result="shadowBlurOuter1" stdDeviation="2"/>
            <feColorMatrix in="shadowBlurOuter1" result="shadowMatrixOuter1" values="0 0 0 0 0 0 0 0 0 0 0 0 0 0 0 0 0 0 0.3 0"/>
            <feMerge>
                <feMergeNode in="shadowMatrixOuter1"/>
                <feMergeNode in="SourceGraphic"/>
            </feMerge>
        </filter>
        <path id="b" d="M0 0h49v48H0z"/>
    </defs>
    <g fill="none" fill-rule="evenodd" filter="url(#a)" transform="translate(-5 -7)">
        <mask id="c" fill="#fff">
            <use xlink:href="#b"/>
        </mask>
        <path fill="#FFF" d="M41.087 13.75a13.568 13.568 0 0 1-3.917 1.054c1.474-.884 2.471-2.134 2.99-3.748a13.35 13.35 0 0 1-4.316 1.642c-1.348-1.432-3.005-2.148-4.97-2.148-1.881 0-3.485.663-4.812 1.99-1.327 1.327-1.99 2.93-1.99 4.811 0 .506.056 1.025.169 1.559a18.953 18.953 0 0 1-7.823-2.095 19.283 19.283 0 0 1-6.202-5.023 6.663 6.663 0 0 0-.927 3.433c0 1.165.274 2.246.822 3.242a6.794 6.794 0 0 0 2.211 2.422 6.747 6.747 0 0 1-3.074-.864v.085c0 1.642.516 3.084 1.547 4.327 1.032 1.243 2.334 2.025 3.906 2.348a7.042 7.042 0 0 1-1.79.232c-.393 0-.82-.036-1.284-.105.435 1.361 1.235 2.48 2.4 3.358a6.632 6.632 0 0 0 3.96 1.359c-2.471 1.936-5.286 2.905-8.444 2.905-.604 0-1.152-.027-1.643-.084 3.159 2.036 6.64 3.053 10.445 3.053 2.414 0 4.681-.382 6.8-1.147 2.121-.765 3.932-1.79 5.434-3.075a20.563 20.563 0 0 0 3.885-4.432 19.755 19.755 0 0 0 2.432-5.233c.533-1.818.8-3.64.8-5.465 0-.393-.007-.687-.021-.884a14.242 14.242 0 0 0 3.412-3.516z" mask="url(#c)"/>
    </g>
</svg>
