<svg xmlns="http://www.w3.org/2000/svg" width="251" height="70" viewBox="0 0 251 70">
    <defs>
        <filter id="a" width="108.6%" height="133.9%" x="-4.3%" y="-16.9%" filterUnits="objectBoundingBox">
            <feOffset dy="1" in="SourceAlpha" result="shadowOffsetOuter1"/>
            <feGaussianBlur in="shadowOffsetOuter1" result="shadowBlurOuter1" stdDeviation="2"/>
            <feColorMatrix in="shadowBlurOuter1" result="shadowMatrixOuter1" values="0 0 0 0 0 0 0 0 0 0 0 0 0 0 0 0 0 0 0.2 0"/>
            <feMerge>
                <feMergeNode in="shadowMatrixOuter1"/>
                <feMergeNode in="SourceGraphic"/>
            </feMerge>
        </filter>
    </defs>
    <g fill="#514A80" fill-rule="evenodd" filter="url(#a)" transform="translate(4.5 3)">
        <path d="M50.4 8.7c-4.2 0-8.2 1.6-11.1 4.6-3 3-4.6 6.9-4.6 11.1 0 4.2 1.7 8.2 4.6 11.1 3 3 6.9 4.6 11.1 4.6 4.2 0 8.2-1.6 11.1-4.6 3-3 4.6-6.9 4.6-11.1 0-4.2-1.6-8.2-4.6-11.1-3-3-7-4.6-11.1-4.6zM69.3.5c1.8 0 3.5.3 5.2.8 1.7.5 3.3 1.3 4.7 2.3 1 .7 1.9 1.5 2.8 2.3.8.8 1.6 1.8 2.2 2.8l-4.7 3c-.4-.7-1-1.3-1.5-1.9-.6-.6-1.2-1.1-1.9-1.6-1-.7-2.1-1.2-3.2-1.6-1.1-.3-2.3-.5-3.6-.5V.5zM117.8 34c-.1 0-.3.1-.3.3v5.6c0 .1.1.3.3.3 7.9 0 10.9-8.5 13.3-14.6 1.2-3 3.7-10.7 7.6-10.7V8.8c-7.9 0-10.9 8.5-13.3 14.6-1.1 2.9-3.7 10.6-7.6 10.6zm-33.1 0c3.8 0 6.4-7.7 7.6-10.7 2.4-6.1 5.4-14.6 13.3-14.6h4.4c2.5 0 4.9 1 6.6 2.8 1.8 1.8 2.8 4.1 2.8 6.6s-1 4.9-2.8 6.6c-1.8 1.8-4.1 2.8-6.6 2.8h-6.8c-.1 0-.3-.1-.3-.3v-5.6c0-.1.1-.3.3-.3h6.8c.9 0 1.7-.3 2.3-.9.6-.6.9-1.4.9-2.3 0-.9-.3-1.7-1-2.3-.6-.6-1.4-1-2.3-1h-4.4c-3.8 0-6.4 7.7-7.6 10.7-2.4 6.1-5.4 14.6-13.3 14.6-.1 0-.3-.1-.3-.3v-5.6c.1-.1.2-.2.4-.2zM185.2 8.7c-7.5.1-10.4 8.9-12.5 14.8-1 2.5-3.5 10.5-6.7 10.5-.1 0-.3.1-.3.3v5.6c0 .1.1.3.3.3 7.5 0 10.3-8.8 12.4-14.5 1-2.7 3.5-10.4 6.7-10.7h.2c.7 0 1.3.3 1.8.7.5.5.7 1.1.7 1.8v14.1c0 2.3.9 4.5 2.5 6.1 1.6 1.6 3.8 2.5 6.1 2.5.1 0 .3-.1.3-.3v-5.6c0-.1-.1-.3-.3-.3-.7 0-1.3-.3-1.8-.7-.5-.5-.7-1.1-.7-1.8V17.4c0-2.3-.9-4.5-2.5-6.1-1.6-1.6-3.8-2.5-6.2-2.5.1-.1 0-.1 0-.1zM19.7 34c-3.2-.3-5.7-8.1-6.7-10.7C10.9 17.5 8.1 8.8.6 8.8c-.1 0-.3.1-.3.3v5.6c0 .1.1.3.3.3 3.2 0 5.7 8 6.7 10.5 2.2 5.8 5 14.6 12.5 14.8h.2c2.3 0 4.5-.9 6.1-2.5 1.6-1.6 2.5-3.8 2.5-6.1V17.4c0-.7.3-1.3.8-1.8l.1-.1c.5-.4 1-.6 1.6-.6.1 0 .3-.1.3-.3V9c0-.1-.1-.3-.3-.3-2.3 0-4.5.9-6.1 2.5-1.6 1.6-2.5 3.8-2.5 6.1v14.1c0 .7-.3 1.3-.7 1.8-.5.5-1.1.7-1.8.7-.1.1-.2.1-.3.1zm192.2-19.2c3 .4 5.5 8 6.4 10.5 2.2 5.8 5 14.6 12.5 14.8h.2c2.3 0 4.5-.9 6.1-2.5 1.6-1.6 2.5-3.8 2.5-6.1V17.4c0-.7.3-1.3.8-1.8l.1-.1c.5-.4 1-.6 1.6-.6.1 0 .3-.1.3-.3V9c0-.1-.1-.3-.3-.3-2.3 0-4.5.9-6.1 2.5-1.6 1.6-2.5 3.8-2.5 6.1v14.1c0 .7-.3 1.3-.7 1.8-.5.5-1.1.7-1.8.7h-.2c-3.2-.3-5.7-8.1-6.7-10.7-2.1-5.7-4.9-14.4-12.3-14.5h-.2c-2.3 0-4.5.9-6.1 2.5-1.6 1.6-2.5 3.8-2.5 6.1v14.1c0 .7-.3 1.3-.7 1.8-.5.5-1.1.7-1.8.7-.1 0-.3.1-.3.3v5.6c0 .1.1.3.3.3 2.3 0 4.5-.9 6.1-2.5 1.6-1.6 2.5-3.8 2.5-6.1V17.4c0-.7.3-1.3.8-1.8l.1-.1c.5-.4 1-.6 1.7-.6.1-.1.1-.1.2-.1zM80.7 40.1c.1 0 .3-.1.3-.3v-5.6c0-.1-.1-.3-.3-.3-.7 0-1.3-.3-1.8-.7-.5-.5-.7-1.1-.7-1.8v-14c0-2.3-.9-4.5-2.5-6.1-1.6-1.6-3.8-2.5-6.1-2.5-.1 0-.3.1-.3.3v5.6c0 .1.1.3.3.3.7 0 1.3.3 1.8.7.5.5.7 1.1.7 1.8v14.1c0 2.3.9 4.5 2.5 6.1 1.6 1.5 3.8 2.4 6.1 2.4zm77.1-31.4c-4.2 0-8.2 1.6-11.1 4.6-3 3-4.6 6.9-4.6 11.1 0 4.2 1.7 8.2 4.6 11.1 3 3 6.9 4.6 11.1 4.6 1.6 0 3.1-.2 4.6-.7v-6.6c-1.4.8-2.9 1.2-4.6 1.2-2.5 0-5-1-6.8-2.8-1.8-1.8-2.8-4.2-2.8-6.8 0-2.5 1-5 2.8-6.8 1.8-1.8 4.2-2.8 6.8-2.8 1.6 0 3.2.4 4.6 1.1V9.3c-1.5-.4-3-.6-4.6-.6zM57.1 17.6c1.8 1.8 2.8 4.2 2.8 6.8 0 2.6-1 5-2.8 6.8-1.8 1.8-4.2 2.8-6.7 2.8s-5-1-6.8-2.8c-1.8-1.8-2.8-4.2-2.8-6.8 0-2.5 1-5 2.8-6.8 1.8-1.8 4.2-2.8 6.8-2.8 2.6 0 4.9 1 6.7 2.8z"/>
        <path fill-rule="nonzero" d="M155.3 61.1h-2.7l-1.3-3.6h-4.9l-1.3 3.6h-2.7l5.3-13.9h2.3l5.3 13.9zm-4.8-5.8l-1.7-4.5-1.6 4.5h3.3z"/>
        <path d="M160.4 61.1c-1.9 0-3-.6-3-2.7V47.2h2.3v11.2c0 .5.2.7.8.7v2h-.1zM166.8 61.1c-1.9 0-3-.6-3-2.7V47.2h2.3v11.2c0 .5.2.7.8.7v2h-.1zM181.6 49.1c-1.2 0-1.7.3-1.7 1.7v.5h1.5v2h-1.5v7.8h-2.3v-7.8h-.8v-2h.8v-1.1c0-2.6 1.7-2.9 4-3v1.9z"/>
        <path fill-rule="nonzero" d="M187.9 61.3c-3.1 0-4.4-2.2-4.4-5.1 0-2.9 1.2-5.1 4.4-5.1 3.1 0 4.4 2.2 4.4 5.1 0 2.9-1.2 5.1-4.4 5.1zm0-7.9c-1.7 0-2 1.4-2 2.8s.3 2.8 2 2.8 2-1.4 2-2.8-.3-2.8-2-2.8z"/>
        <path d="M200.8 53.6c-.4-.2-.8-.3-1.2-.3-1 0-1.7.6-1.7 1.6v6.2h-2.4v-9.8h1.9l.1.6c.1-.2 1-.9 2-.9.7 0 1.4.2 2.1.7l-.8 1.9zM217.5 54.6c-.6-.6-1.2-1.2-2.1-1.2-1.7 0-2.2 1.4-2.2 2.8s.5 2.8 2.2 2.8c.9 0 1.5-.6 2.1-1.2l1.7 1.6c-1.2 1.2-2.1 1.9-3.8 1.9-3 0-4.6-2.3-4.6-5.1s1.6-5.1 4.6-5.1c1.7 0 2.7.7 3.8 1.9l-1.7 1.6z"/>
        <path fill-rule="nonzero" d="M229.9 60.8l-2 .5-.2-.7c-.7.5-1.6.8-2.4.8-1.9 0-3.6-1.1-3.6-3.2 0-1.8 1.1-2.9 3.5-3.1h1.5c.3 0 .5-.1.6-.3v-.4c0-.7-.7-1.1-1.4-1.1-.8 0-1.5.3-1.9 1l-2-.7c.6-1.7 2-2.5 3.9-2.5 1.8 0 3.6 1.2 3.6 3v5.1l.4 1.6zm-2.6-4.1c-.3.1-.4.2-.7.2h-1.2c-.8 0-1.6.4-1.6 1.4 0 .8.9 1.2 1.5 1.2.7 0 1.4-.3 2-.8v-2z"/>
        <path d="M236.2 61.1c-1.9 0-3-.6-3-2.7V47.2h2.3v11.2c0 .5.2.7.8.7v2h-.1zM242.5 61.1c-1.9 0-3-.6-3-2.7V47.2h2.3v11.2c0 .5.2.7.8.7v2h-.1z"/>
    </g>
</svg>
