<svg xmlns="http://www.w3.org/2000/svg" width="22" height="24" viewBox="0 0 22 24">
    <path fill="#FFF" fill-rule="evenodd" d="M20.476 22.189H.857c-.474 0-.857.404-.857.905S.383 24 .857 24h19.62c.473 0 .856-.405.856-.906 0-.5-.383-.905-.857-.905M1.76 15.064l9.532-10.107 2.446 2.59-9.543 10.09H1.76v-2.573zM13.904 2.186l2.457 2.596-1.405 1.485-2.452-2.59 1.4-1.491zM.903 19.448h3.646a.834.834 0 0 0 .606-.266l13.024-13.76a.942.942 0 0 0 0-1.28L14.509.266A.834.834 0 0 0 13.905 0a.834.834 0 0 0-.606.266l-13 13.784a.954.954 0 0 0-.252.64v3.852c0 .501.383.906.857.906z" opacity=".7"/>
</svg>
