<svg xmlns="http://www.w3.org/2000/svg" xmlns:xlink="http://www.w3.org/1999/xlink" width="45" height="30" viewBox="0 0 45 30">
    <defs>
        <filter id="a" width="142%" height="143.8%" x="-21%" y="-21.9%" filterUnits="objectBoundingBox">
            <feOffset dy="1" in="SourceAlpha" result="shadowOffsetOuter1"/>
            <feGaussianBlur in="shadowOffsetOuter1" result="shadowBlurOuter1" stdDeviation="2"/>
            <feColorMatrix in="shadowBlurOuter1" result="shadowMatrixOuter1" values="0 0 0 0 0 0 0 0 0 0 0 0 0 0 0 0 0 0 0.2 0"/>
            <feMerge>
                <feMergeNode in="shadowMatrixOuter1"/>
                <feMergeNode in="SourceGraphic"/>
            </feMerge>
        </filter>
        <path id="b" d="M.318 0h49v48h-49z"/>
    </defs>
    <g fill="none" fill-rule="evenodd" filter="url(#a)" transform="translate(-2 -10)">
        <mask id="c" fill="#fff">
            <use xlink:href="#b"/>
        </mask>
        <path fill="#FFF" d="M43.107 32.868a2.647 2.647 0 0 0-.127-.25c-.647-1.206-1.884-2.685-3.71-4.438l-.038-.04-.02-.02-.019-.02h-.02c-.828-.816-1.353-1.365-1.573-1.646-.402-.536-.492-1.078-.272-1.627.155-.415.738-1.29 1.748-2.63.531-.709.952-1.278 1.262-1.706 2.24-3.078 3.212-5.046 2.914-5.902l-.116-.2c-.077-.121-.278-.231-.601-.332-.324-.1-.739-.117-1.244-.05l-5.594.04c-.09-.033-.22-.03-.388.01l-.253.06-.097.05-.077.061a.878.878 0 0 0-.214.21 1.4 1.4 0 0 0-.194.352 33.282 33.282 0 0 1-2.078 4.517c-.48.83-.92 1.55-1.321 2.158-.402.61-.738 1.058-1.01 1.345a7.157 7.157 0 0 1-.738.693c-.22.174-.388.248-.505.22a14.029 14.029 0 0 1-.33-.08 1.319 1.319 0 0 1-.437-.491 2.258 2.258 0 0 1-.224-.783 8.884 8.884 0 0 1-.068-.814 17.41 17.41 0 0 1 .01-.963c.013-.415.02-.696.02-.844 0-.508.01-1.06.029-1.656.02-.595.035-1.067.048-1.415.013-.348.02-.716.02-1.104 0-.388-.023-.693-.068-.914a3.186 3.186 0 0 0-.204-.642 1.072 1.072 0 0 0-.398-.482 2.205 2.205 0 0 0-.65-.271c-.687-.16-1.561-.248-2.623-.261-2.408-.027-3.956.134-4.642.482a2.63 2.63 0 0 0-.738.602c-.233.295-.266.455-.098.482.777.12 1.328.408 1.651.863l.117.241c.09.174.181.482.272.924.09.441.149.93.175 1.465.064.977.064 1.814 0 2.51a30.906 30.906 0 0 1-.185 1.626c-.058.388-.145.702-.262.943-.117.241-.194.388-.233.442a.34.34 0 0 1-.097.1 1.41 1.41 0 0 1-.525.1c-.181 0-.401-.093-.66-.28a4.723 4.723 0 0 1-.806-.773c-.278-.328-.592-.787-.942-1.376a24.26 24.26 0 0 1-1.088-2.088l-.31-.582c-.195-.375-.46-.92-.797-1.636a32.096 32.096 0 0 1-.893-2.078 1.32 1.32 0 0 0-.466-.642l-.097-.06a1.31 1.31 0 0 0-.311-.171 2.025 2.025 0 0 0-.447-.13l-5.322.04c-.544 0-.913.126-1.107.38l-.078.121c-.038.067-.058.174-.058.321 0 .148.039.328.117.542a67.264 67.264 0 0 0 2.534 5.461c.913 1.753 1.706 3.166 2.38 4.236a50.113 50.113 0 0 0 2.058 3.031c.7.95 1.162 1.56 1.389 1.827.227.268.405.469.534.603l.486.481c.31.322.767.707 1.369 1.155.602.448 1.269.89 2 1.325.732.435 1.584.79 2.555 1.064a8.554 8.554 0 0 0 2.835.331h2.234c.453-.04.797-.187 1.03-.441l.077-.1c.052-.08.1-.205.146-.372a2.11 2.11 0 0 0 .067-.552 6.833 6.833 0 0 1 .127-1.556c.096-.461.207-.81.33-1.044a2.56 2.56 0 0 1 .417-.592c.156-.16.266-.257.331-.29.065-.035.116-.058.155-.071.31-.107.677-.004 1.098.311.42.315.815.703 1.185 1.165.369.462.812.98 1.33 1.556.518.575.971 1.003 1.36 1.284l.388.241c.26.161.596.308 1.01.442.414.134.776.168 1.088.1l4.972-.08c.492 0 .874-.084 1.146-.25.272-.168.433-.352.485-.553.052-.2.055-.428.01-.683a2.568 2.568 0 0 0-.136-.532z" mask="url(#c)"/>
    </g>
</svg>
